<svg width="23" height="25" viewBox="0 0 23 25" fill="none" xmlns="http://www.w3.org/2000/svg">
<path d="M2.42213 1.84303L3.84063 1.101C5.17235 0.405636 6.81438 0.76568 7.68218 1.94083L9.40592 4.28291C10.1564 5.30267 10.1334 6.68518 9.34557 7.70062L7.15491 10.5265C7.59368 11.865 8.37257 13.1124 9.4888 14.2693C10.554 15.3917 11.8621 16.2983 13.3355 16.9355L16.3263 15.325C17.4611 14.7157 18.8611 14.8726 19.8001 15.7138L21.9916 17.6725C23.085 18.651 23.2509 20.27 22.3791 21.4615L21.4444 22.7386C20.5143 24.0095 18.9619 24.7162 17.3701 24.5913C13.6111 24.2985 9.73883 21.961 5.75188 17.5791C1.75918 13.1905 -0.148922 9.16689 0.0299894 5.51312C0.104893 3.97561 1.01406 2.57898 2.42213 1.84303Z" fill="#00DC72"/>
</svg>
